ply
format ascii 1.0
comment Exported by Aspose.3D 24.9.0
element vertex 150
property float x
property float y
property float z
property float nx
property float ny
property float nz
element face 296
property list uchar int vertex_index
end_header
34.80799865722656 0 12.065999984741211 0.37382446868079044 0.7211291790008545 -0.1388288927929742
35.5880012512207 -2.184000015258789 11.812000274658203 0.9265151520570118 0.17460976044336954 -0.25797710567712784
36.180999755859375 0 19.27899932861328 0.46269829074541724 0.6746222873528798 -0.048631670574347176
31.687000274658203 -1.5805003790100858E-12 5.421000003814697 0.45859894752502445 0.6097444415092469 -0.318261456489563
32.380001068115234 -2.184000015258789 4.980000019073486 0.8244643296514238 0.14977741241455078 -0.5023618638515472
33.70800018310547 -7.998000144958496 13.076000213623047 -0.5585250616073608 -0.4 0.20746420323848724
26.36400032043457 -7.998000144958496 1.4809999465942383 -0.118233991705853 -0.8260869565217391 0.12566307834956958
35.00299835205078 -7.998000144958496 19.875 -0.6601240436236063 -0.3333333333333333 0.04146779080231984
30.767000198364258 -7.998000144958496 6.814000129699707 -0.5587611595789591 -0.3333333333333333 0.3539241552352905
34.569000244140625 -7.998000144958496 26.783000946044922 -0.48731061816215515 -0.5 -0.09281141310930252
-0.2709999978542328 -3.897434024818791E-12 -7.256999969482422 -0.16169459819793702 0.610013622045517 -0.5341614246368408
-0.4749999940395355 -2.184000015258789 -8.053999900817871 -0.20009007304906845 0.17498977482318878 -0.9405251344045003
7 0 -8.178000450134277 -0.023521365225315095 0.609944099187851 -0.557617723941803
7 -2.184000015258789 -9 0.023542052507400515 0.20994324684143068 -0.9544553756713867
-7.480999946594238 -2.184000015258789 -5.275000095367432 -0.428024356563886 0.17495225369930267 -0.861074795325597
-7.085999965667725 -2.235802959871941E-13 -4.553999900817871 -0.3620377704501152 0.5123311504721642 -0.5964053869247437
-13.57699966430664 -2.184000015258789 -0.8370000123977661 -0.6492308803967067 0.14984479546546936 -0.7145241073199681
-13.015000343322754 0 -0.23800000548362732 -0.22181446022457546 0.7832040786743164 -0.2167166272799174
27.57699966430664 -2.184000015258789 -0.8370000123977661 0.6712093114852906 0.20976681709289552 -0.6791140675544739
27.014999389648438 0 -0.23800000548362732 0.3042148451010386 0.6748191614945729 -0.3518892725308736
21.086000442504883 0 -4.553999900817871 0.24842379093170167 0.6099435448646546 -0.4997873663902283
21.481000900268555 -2.184000015258789 -5.275000095367432 0.49900346994400024 0.17488823334376016 -0.822008599837621
14.270999908447266 -1.87331660600476E-12 -7.256999969482422 0.11613885462284089 0.6099862575531007 -0.5458893775939941
14.475000381469727 -2.184000015258789 -8.053999900817871 0.2567004146320479 0.150009457554136 -0.9305830597877502
27.57699966430664 -157.8159942626953 -0.8370000123977661 0.6492308803967067 -0.14984479546546936 -0.7145241073199681
7 -157.8159942626953 -9 -0.016815751791000366 -0.14995946202959332 -0.9652072191238403
-5.776000022888184 -7.998000144958496 -2.5869998931884766 0.19145889282226564 -0.6000000000000001 0.3475983142852783
14.352999687194824 -7.998000144958496 -5.135000228881836 -0.1438574269413948 -0.5 0.4751892685890198
0.6470000147819519 -7.998000144958496 -5.135000228881836 0.17262891232967378 -0.4 0.5702271223068237
7.5 -7.998000144958496 -6.002999782562256 0 -0.2 0.7936591148376465
20.775999069213867 -7.998000144958496 -2.5869998931884766 -0.19145889282226564 -0.6000000000000001 0.3475983142852783
-23 -2.184000015258789 19.22800064086914 -0.9513150453567505 0.20954732894897463 -0.0832307294011116
-21.58799934387207 -2.184000015258789 11.812000274658203 -0.913118200642722 0.14969976033483232 -0.313712409564427
-20.808000564575195 -5.7355786786672525E-12 12.065999984741211 -0.5378335356712342 0.6095316708087921 -0.14976760149002075
-22.527000427246094 -2.184000015258789 26.761999130249023 -0.9514515229633875 0.1496995644909995 0.16411635811839784
-22.180999755859375 -8.233315938743768E-12 19.27899932861328 -0.46513989567756653 0.674642930428187 -0.009634774178266525
-21.72100067138672 3.1623659853957653E-12 26.607999801635742 -0.4529757797718048 0.6746233403682709 0.10613524044553438
-11.36400032043457 -7.998000144958496 1.4809999465942383 0.3884831156049456 -0.42857142857142855 0.41289297172001427
-15.767000198364258 -7.998000144958496 6.814000129699707 0.41907086968421936 -0.5 0.2654431164264679
-20.00200080871582 -7.998000144958496 19.875 0.4951019287109375 -0.5 0.03110196441411972
-18.70800018310547 -7.998000144958496 13.076000213623047 0.6291697025299072 -0.3333333333333333 0.2040246029694875
-19.569000244140625 -7.998000144958496 26.783000946044922 0.5894585728645325 -0.4 -0.08673198223114015
10.767000198364258 -2.184000015258789 51 0.09652210175991059 0.13997374773025514 0.9624913096427918
3.2330000400543213 -2.184000015258789 51 -0.1378852128982544 0.19994794045175823 0.9464226790836878
10.664999961853027 -1.805164698276407E-11 50.183998107910156 0.09336746633052827 0.47992652654647827 0.7376090407371522
3.3350000381469727 0 50.183998107910156 -0.058349162340164185 0.6749675571918488 0.4610018730163574
18.06599998474121 -2.184000015258789 49.12200164794922 0.3403255747897284 0.14991486498287745 0.9033985989434378
17.76300048828125 1.626685938727057E-11 48.358001708984375 0.18957965075969696 0.6748602638641993 0.42474739750226337
24.667999267578125 -2.184000015258789 45.48500061035156 0.5665135383605957 0.1748112440109253 0.7760208149751027
24.18600082397461 0 44.81999969482422 0.28934651116530097 0.6747692277034123 0.364235113064448
29.52899932861328 4.5486642230585517E-11 39.792999267578125 0.3178850327219282 0.7211642350469316 0.24073095832552227
30.160999298095703 -2.184000015258789 40.31700134277344 0.7211349487304688 0.20966742038726807 0.6259047985076904
34.198001861572266 -2.184000015258789 33.94300079345703 0.8666557584490094 0.14968584265027726 0.42556716288839064
33.45600128173828 0 33.59299850463867 0.5148518443107605 0.6095531105995179 0.2158994734287262
32.433998107910156 -7.998000144958496 33.3650016784668 -0.5494505047798157 -0.4 -0.23042371273040774
28.732999801635742 -7.998000144958496 39.20899963378906 -0.5100445548693339 -0.3333333333333333 -0.42109696070353186
4.046000003814697 -7.998000144958496 49.00299835205078 0.08309126396973927 -0.3333333333333333 -0.6561443408330281
10.954000473022461 -7.998000144958496 49.00299835205078 -0.09970951676368714 -0.4 -0.5873732089996339
17.643999099731445 -7.998000144958496 47.28099822998047 -0.24281330406665802 -0.4 -0.5440678358078003
23.697999954223633 -7.998000144958496 43.946998596191406 -0.29192447662353516 -0.5 -0.40105313062667847
35.72100067138672 0 26.607999801635742 0.46027700106302893 0.6746500780185063 0.06773852184414864
36.527000427246094 -2.184000015258789 26.761999130249023 0.9334217190742493 0.20954900979995728 0.2015988141298294
37 -2.184000015258789 19.22800064086914 0.9615422983964284 0.17464286088943481 -0.01992890859643618
30.160999298095703 -157.8159942626953 40.31700134277344 0.7550390192440577 -0.14973585520471844 0.6017004081181118
36.527000427246094 -157.8159942626953 26.761999130249023 0.9514515229633875 -0.1496995644909995 0.16411635811839784
30.767000198364258 -160 6.814000129699707 -0.47893813678196495 -0.42857142857142855 0.303363561630249
34.569000244140625 -160 26.783000946044922 -0.5569264207567487 -0.42857142857142855 -0.10607018641063144
21.481000900268555 -157.8159942626953 -5.275000095367432 0.428024356563886 -0.17495225369930267 -0.861074795325597
36.180999755859375 -160 19.27899932861328 0.46513989567756653 -0.674642930428187 -0.009634774178266525
35.72100067138672 -160 26.607999801635742 0.4529757797718048 -0.6746233403682709 0.10613524044553438
37 -157.8159942626953 19.22800064086914 0.9564879536628723 -0.1746227741241455 -0.10053211823105812
35.5880012512207 -157.8159942626953 11.812000274658203 0.9015791515509287 -0.1746497203906377 -0.334824634095033
34.80799865722656 -160 12.065999984741211 0.44819461305936176 -0.6746097256739934 -0.12480633457501729
31.687000274658203 -160 5.421000003814697 0.4031166434288025 -0.6747393856445948 -0.2321728765964508
32.380001068115234 -157.8159942626953 4.980000019073486 0.7938655257225037 -0.2097445368766785 -0.5305900275707245
-20.197999954223633 -2.184000015258789 33.94300079345703 -0.8740610241889955 0.20955242514610292 0.3846103429794312
-19.45599937438965 0 33.59299850463867 -0.3535058668681553 0.7211143629891531 0.18453926273754664
-15.529000282287598 -8.415110969162143E-11 39.792999267578125 -0.41512389183044435 0.6096674144268036 0.37323067188262943
-16.160999298095703 -2.184000015258789 40.31700134277344 -0.7550390192440577 0.14973585520471844 0.6017004081181118
-10.668000221252441 -2.184000015258789 45.48500061035156 -0.564398114879926 0.1747693618138631 0.777580698331197
-10.185999870300293 0 44.81999969482422 -0.2576841463645299 0.6748117605845133 0.38726360599199927
-3.763000011444092 0 48.358001708984375 -0.153140256802241 0.674901470541954 0.4391874571641286
-4.065999984741211 -2.184000015258789 49.12200164794922 -0.3738420844078064 0.2098333239555359 0.8785632967948914
-8.697999954223633 -160 43.946998596191406 0.33362797328404015 -0.42857142857142855 -0.45834643500191824
-2.6440000534057617 -160 47.28099822998047 0.16349065800507862 -0.5 -0.46880318721135456
-2.6440000534057617 -7.998000144958496 47.28099822998047 0.24281330406665802 -0.4 -0.5440678358078003
26.36400032043457 -160 1.4809999465942383 -0.27193818092346195 -0.6000000000000001 0.28902508020401
33.70800018310547 -160 13.076000213623047 -0.4783037404219309 -0.5 0.13321978350480396
35.00299835205078 -160 19.875 -0.39607442617416383 -0.6000000000000001 0.024880674481391907
-15.767000198364258 -160 6.814000129699707 0.47893813678196495 -0.42857142857142855 0.303363561630249
-11.36400032043457 -160 1.4809999465942383 0.22661515076955158 -0.6666666666666666 0.24085423350334167
-5.776000022888184 -160 -2.5869998931884766 0.273512704031808 -0.42857142857142855 0.4965690204075404
34.198001861572266 -157.8159942626953 33.94300079345703 0.8740610241889955 -0.20955242514610292 0.3846103429794312
-7.480999946594238 -157.8159942626953 -5.275000095367432 -0.49900346994400024 -0.17488823334376016 -0.822008599837621
-0.4749999940395355 -157.8159942626953 -8.053999900817871 -0.278558195879062 -0.17501103381315866 -0.9203324317932129
-18.3799991607666 -2.184000015258789 4.980000019073486 -0.7938655257225037 0.2097445368766785 -0.5305900275707245
-18.3799991607666 -157.8159942626953 4.980000019073486 -0.8244643296514238 -0.14977741241455078 -0.5023618638515472
32.433998107910156 -160 33.3650016784668 -0.44014574090639746 -0.5 -0.22976773977279663
28.732999801635742 -160 39.20899963378906 -0.3825334161520004 -0.5 -0.3158227205276489
23.697999954223633 -160 43.946998596191406 -0.33362797328404015 -0.42857142857142855 -0.45834643500191824
17.643999099731445 -160 47.28099822998047 -0.16349065800507862 -0.5 -0.46880318721135456
10.954000473022461 -160 49.00299835205078 -0.04154563198486964 -0.5 -0.4947388370831807
4.046000003814697 -160 49.00299835205078 0.04985475838184357 -0.6000000000000001 -0.3936866044998169
3.2330000400543213 -157.8159942626953 51 -0.08043508479992548 -0.17497730255126953 0.9582013487815857
-4.065999984741211 -157.8159942626953 49.12200164794922 -0.3403255747897284 -0.14991486498287745 0.9033985989434378
-8.697999954223633 -7.998000144958496 43.946998596191406 0.29192447662353516 -0.5 -0.40105313062667847
-13.732999801635742 -7.998000144958496 39.20899963378906 0.5100445548693339 -0.3333333333333333 -0.42109696070353186
-17.43400001525879 -7.998000144958496 33.3650016784668 0.5494505047798157 -0.4 -0.23042371273040774
-17.687000274658203 6.099892726346701E-13 5.421000003814697 -0.3455285515104021 0.7212051876953669 -0.19900532279695782
-20.197999954223633 -157.8159942626953 33.94300079345703 -0.8666557584490094 -0.14968584265027726 0.42556716288839064
-17.43400001525879 -160 33.3650016784668 0.44014574090639746 -0.5 -0.22976773977279663
-19.569000244140625 -160 26.783000946044922 0.4834102888902028 -0.5 -0.1132742166519165
-20.00200080871582 -160 19.875 0.5658307756696428 -0.42857142857142855 0.035545102187565396
-18.70800018310547 -160 13.076000213623047 0.37750182151794437 -0.6000000000000001 0.12241476178169251
10.767000198364258 -157.8159942626953 51 0.16086608171463013 -0.174940084417661 0.94803453485171
24.667999267578125 -157.8159942626953 45.48500061035156 0.564398114879926 -0.1747693618138631 0.777580698331197
-15.529000282287598 -160 39.792999267578125 -0.3708658715089162 -0.6746916075547535 0.2808527847131093
-16.160999298095703 -157.8159942626953 40.31700134277344 -0.7211349487304688 -0.20966742038726807 0.6259047985076904
-10.185999870300293 -160 44.81999969482422 -0.28934651116530097 -0.6747692277034123 0.364235113064448
-10.668000221252441 -157.8159942626953 45.48500061035156 -0.5665135383605957 -0.1748112440109253 0.7760208149751027
-3.763000011444092 -160 48.358001708984375 -0.18957965075969696 -0.6748602638641993 0.42474739750226337
3.3350000381469727 -160 50.183998107910156 -0.07780622194210687 -0.6749395926793416 0.4585489432017008
-13.732999801635742 -160 39.20899963378906 0.3060267329216004 -0.6000000000000001 -0.25265817642211913
-21.58799934387207 -157.8159942626953 11.812000274658203 -0.9153476834297181 -0.20953171253204347 -0.2721647143363953
-23 -157.8159942626953 19.22800064086914 -0.9645151836531503 -0.1496938807623727 -0.043801787708486827
-20.808000564575195 -160 12.065999984741211 -0.43612854679425556 -0.6746507088343302 -0.16196704159180322
-17.687000274658203 -160 5.421000003814697 -0.382165789604187 -0.674787034591039 -0.2652178804079691
-22.180999755859375 -160 19.27899932861328 -0.46269829074541724 -0.6746222873528798 -0.048631670574347176
-22.527000427246094 -157.8159942626953 26.761999130249023 -0.9334217190742493 -0.20954900979995728 0.2015988141298294
-21.72100067138672 -160 26.607999801635742 -0.46027700106302893 -0.6746500780185063 0.06773852184414864
18.06599998474121 -157.8159942626953 49.12200164794922 0.3738420844078064 -0.2098333239555359 0.8785632967948914
10.664999961853027 -160 50.183998107910156 0.03889944156010945 -0.6749775509039561 0.4634598394234975
17.76300048828125 -160 48.358001708984375 0.153140256802241 -0.674901470541954 0.4391874571641286
24.18600082397461 -160 44.81999969482422 0.2576841463645299 -0.6748117605845133 0.38726360599199927
29.52899932861328 -160 39.792999267578125 0.29651706559317453 -0.7211910103048597 0.266593337059021
33.45600128173828 -160 33.59299850463867 0.4124235113461812 -0.6746334234873453 0.21529580652713776
-19.45599937438965 -160 33.59299850463867 -0.4290432035923004 -0.6746275921662648 0.17991622785727182
-7.085999965667725 -160 -4.553999900817871 -0.20701982577641803 -0.6749529540538788 -0.4164894719918569
27.014999389648438 -160 -0.23800000548362732 0.33272169033686316 -0.6748061180114746 -0.3250749409198761
-13.015000343322754 -160 -0.23800000548362732 -0.3650578141212464 -0.6097829937934875 -0.4222671270370484
20.775999069213867 -160 -2.5869998931884766 -0.273512704031808 -0.42857142857142855 0.4965690204075404
21.086000442504883 -160 -4.553999900817871 0.24135851363341013 -0.6748874336481094 -0.3976035912831624
0.6470000147819519 -160 -5.135000228881836 0.1033426970243454 -0.5 0.4856131076812744
-0.2709999978542328 -160 -7.256999969482422 -0.0967823788523674 -0.6749885479609171 -0.45490781466166175
7.5 -160 -6.002999782562256 0 -0.6000000000000001 0.39682955741882325
7 -160 -8.178000450134277 0.019601137687762577 -0.6749534159898758 -0.46468143661816913
14.270999908447266 -160 -7.256999969482422 0.13474549849828082 -0.6750113517045975 -0.4451345205307007
14.352999687194824 -160 -5.135000228881836 -0.1033426970243454 -0.5 0.4856131076812744
-13.57699966430664 -157.8159942626953 -0.8370000123977661 -0.6712093114852906 -0.20976681709289552 -0.6791140675544739
14.475000381469727 -157.8159942626953 -8.053999900817871 0.21499734222888947 -0.20998772978782654 -0.9302127957344055
3 0 1 2
3 3 4 0
3 0 4 1
3 5 6 7
3 8 6 5
3 9 7 6
3 10 11 12
3 12 11 13
3 14 11 10
3 15 14 10
3 16 14 15
3 17 16 15
3 18 4 3
3 3 19 18
3 20 21 19
3 21 18 19
3 22 23 20
3 21 20 23
3 13 23 22
3 13 22 12
3 18 21 24
3 25 23 13
3 26 27 28
3 29 28 27
3 27 26 30
3 31 32 33
3 34 31 35
3 36 34 35
3 37 30 26
3 38 6 37
3 30 37 6
3 39 6 40
3 41 6 39
3 40 6 38
3 42 43 44
3 45 44 43
3 46 42 44
3 47 46 44
3 48 46 47
3 49 48 47
3 50 51 49
3 51 48 49
3 52 51 50
3 53 52 50
3 9 6 54
3 55 54 6
3 56 57 6
3 57 58 6
3 58 59 6
3 55 6 59
3 53 60 61
3 52 53 61
3 2 62 60
3 62 61 60
3 1 62 2
3 51 52 63
3 64 52 61
3 64 61 62
3 8 65 6
3 5 65 8
3 9 66 7
3 25 13 11
3 21 67 24
3 68 69 64
3 70 68 64
3 71 72 70
3 72 68 70
3 73 72 71
3 73 71 74
3 75 34 36
3 75 36 76
3 77 78 76
3 76 78 75
3 79 78 77
3 80 79 77
3 81 82 80
3 82 79 80
3 43 81 45
3 81 43 82
3 64 62 70
3 70 62 1
3 83 84 85
3 6 65 86
3 5 87 65
3 88 87 7
3 5 7 87
3 89 37 90
3 66 88 7
3 26 91 37
3 52 92 63
3 93 94 14
3 1 71 70
3 74 71 4
3 71 1 4
3 18 24 4
3 74 4 24
3 90 37 91
3 26 28 91
3 95 96 16
3 66 9 54
3 54 55 97
3 98 97 55
3 98 55 99
3 59 99 55
3 59 58 99
3 100 99 58
3 58 57 100
3 101 100 57
3 102 56 84
3 85 84 56
3 57 56 101
3 102 101 56
3 94 25 11
3 103 104 43
3 85 6 105
3 56 6 85
3 106 105 6
3 41 107 6
3 106 6 107
3 108 95 17
3 16 17 95
3 32 95 108
3 32 96 95
3 33 32 108
3 35 31 33
3 109 34 75
3 78 109 75
3 82 43 104
3 105 83 85
3 83 105 106
3 110 106 107
3 41 111 107
3 112 41 39
3 113 112 40
3 39 40 112
3 113 40 89
3 38 89 40
3 89 38 37
3 114 42 46
3 115 46 48
3 51 63 48
3 115 48 63
3 116 117 118
3 119 120 118
3 104 120 119
3 121 120 104
3 121 104 103
3 106 122 83
3 122 106 110
3 123 32 124
3 31 34 124
3 123 125 96
3 126 96 125
3 127 125 123
3 124 127 123
3 128 129 124
3 129 127 124
3 110 107 111
3 111 41 112
3 130 114 46
3 46 115 130
3 52 64 92
3 103 114 131
3 103 131 121
3 114 130 132
3 80 77 50
3 19 3 108
3 77 76 50
3 132 131 114
3 108 17 19
3 3 0 108
3 15 10 17
3 115 133 130
3 44 45 47
3 49 47 81
3 81 80 49
3 81 47 45
3 50 49 80
3 2 60 36
3 76 36 60
3 53 50 76
3 36 35 2
3 33 108 0
3 60 53 76
3 133 132 130
3 115 134 133
3 0 2 35
3 12 22 17
3 10 12 17
3 63 134 115
3 35 33 0
3 22 20 17
3 20 19 17
3 63 92 135
3 42 114 103
3 135 134 63
3 69 135 92
3 103 43 42
3 69 92 64
3 116 110 136
3 97 66 54
3 102 84 121
3 84 83 120
3 120 121 84
3 122 118 83
3 120 83 118
3 110 116 122
3 111 136 110
3 118 122 116
3 111 112 129
3 127 129 112
3 129 136 111
3 126 125 89
3 113 89 125
3 91 137 90
3 90 126 89
3 112 113 127
3 125 127 113
3 133 134 99
3 98 134 97
3 99 134 98
3 135 97 134
3 132 133 100
3 99 100 133
3 131 132 101
3 100 101 132
3 101 102 131
3 121 131 102
3 69 66 135
3 65 73 86
3 138 86 73
3 87 72 65
3 88 68 87
3 68 72 87
3 73 65 72
3 66 69 88
3 97 135 66
3 68 88 69
3 126 90 139
3 86 138 140
3 141 140 138
3 142 143 91
3 137 139 90
3 144 145 142
3 143 137 91
3 143 142 145
3 146 145 144
3 146 144 147
3 140 141 147
3 146 147 141
3 79 104 119
3 109 136 128
3 129 128 136
3 109 116 136
3 117 116 109
3 117 119 118
3 11 14 94
3 143 145 25
3 16 148 93
3 16 93 14
3 94 143 25
3 93 137 94
3 137 143 94
3 23 67 21
3 149 67 23
3 148 139 93
3 149 23 25
3 29 27 147
3 139 137 93
3 30 140 27
3 147 27 140
3 139 148 126
3 96 126 148
3 86 140 6
3 30 6 140
3 74 24 138
3 74 138 73
3 141 138 24
3 16 96 148
3 67 141 24
3 67 146 141
3 96 32 123
3 149 146 67
3 31 124 32
3 145 149 25
3 128 124 34
3 145 146 149
3 128 34 109
3 29 147 144
3 117 109 78
3 117 78 119
3 79 119 78
3 28 142 91
3 144 142 29
3 28 29 142
3 82 104 79
