ply
format ascii 1.0
comment Exported by Aspose.3D 24.9.0
element vertex 128
property float x
property float y
property float z
property float nx
property float ny
property float nz
element face 252
property list uchar int vertex_index
end_header
-133 -11 -1 -0.5992770552635193 -0.4 -0.009815125912427903
117 -11 -1 0.09987950921058655 -0.9 0
-132.3979949951172 -11 -13.251999855041504 -0.49699263274669647 -0.5 -0.048953342251479626
88.6259994506836 -1 -80.29900360107422 0.4570145130157471 0.4 -0.3877726554870606
80.38800048828125 -1 -89.38800048828125 0.20178728444235663 0.7142857142857142 -0.20178728444235663
80.38800048828125 -11 -89.38800048828125 0.40357456888471327 -0.42857142857142855 -0.40357456888471327
88.6259994506836 -11 -80.29900360107422 0.4694634675979614 -0.4 -0.3726042747497559
71.29900360107422 -1 -97.6259994506836 0.3877726554870606 0.4 -0.4570145130157471
71.29900360107422 -11 -97.6259994506836 0.3726042747497559 -0.4 -0.4694634675979614
61.44599914550781 -1 -104.93399810791016 0.3411106109619141 0.4 -0.4928209900856018
61.44599914550781 -11 -104.93399810791016 0.324785327911377 -0.4 -0.5037295579910278
50.92499923706055 -1 -111.23999786376953 0.2911486566066742 0.4 -0.5238910675048828
50.92499923706055 -11 -111.23999786376953 0.27383726835250854 -0.4 -0.5331440091133118
39.834999084472656 -1 -116.48500061035156 0.2384053647518158 0.4 -0.549903154373169
39.834999084472656 -11 -116.48500061035156 0.2202848494052887 -0.4 -0.5574093580245972
28.285999298095703 -1 -120.61799621582031 0.18336006402969363 0.4 -0.5706196784973144
28.285999298095703 -11 -120.61799621582031 0.205694742500782 -0.25 -0.7204047441482544
16.38599967956543 -1 -123.5979995727539 0.12651523053646088 0.4 -0.5858536958694458
16.38599967956543 -11 -123.5979995727539 0.05959940950075785 -0.6666666666666666 -0.3275997108883328
4.251999855041504 -1 -125.39800262451172 0.0685102216899395 0.4 -0.5954291939735413
4.251999855041504 -11 -125.39800262451172 0.018837615274466 -0.7692307692307693 -0.2297512017763578
-132.3979949951172 -1 11.251999855041504 -0.05522140363852183 0.9444444444444444 0.005439260250164403
-8 -1 124 0.009815125912427903 0.4 0.5992770552635193
-20.25200080871582 -1 123.39800262451172 -0.0489777997136116 0.4 0.5973531246185303
-32.38600158691406 -1 121.5979995727539 -0.10727893710136414 0.4 0.589679479598999
-44.2859992980957 -1 118.61799621582031 -0.16455579400062562 0.4 0.5763237953186036
-55.834999084472656 -1 114.48500061035156 -0.2202848494052887 0.4 0.5574093580245972
-66.92500305175781 -1 109.23999786376953 -0.27383726835250854 0.4 0.5331440091133118
-77.44599914550781 -1 102.93399810791016 -0.324785327911377 0.4 0.5037295579910278
-87.29900360107422 -1 95.6259994506836 -0.3726042747497559 0.4 0.4694634675979614
-96.38800048828125 -1 87.38800048828125 -0.347346564133962 0.5 0.35890893141428626
-104.6259994506836 -1 78.29900360107422 -0.4570145130157471 0.4 0.3877726554870606
-130.59800720214844 -1 23.38599967956543 -0.39184439182281494 0.6000000000000001 0.07793138921260834
-111.93399810791016 -1 68.44599914550781 -0.4928209900856018 0.4 0.3411106109619141
-118.23999786376953 -1 57.92499923706055 -0.5238910675048828 0.4 0.2911486566066742
-123.48500061035156 -1 46.834999084472656 -0.549903154373169 0.4 0.2384053647518158
-127.61799621582031 -1 35.2859992980957 -0.7132745981216431 0.25 0.229200080037117
4.251999855041504 -1 123.39800262451172 0.0685102216899395 0.4 0.5954291939735413
4.251999855041504 -11 123.39800262451172 0.018837615274466 -0.7692307692307693 0.2297512017763578
16.38599967956543 -1 121.5979995727539 0.12651523053646088 0.4 0.5858536958694458
16.38599967956543 -11 121.5979995727539 0.05959940950075785 -0.6666666666666666 0.3275997108883328
-20.25200080871582 -11 -125.39800262451172 -0.0685102216899395 -0.4 -0.5954291939735413
-8 -11 -126 -0.009815125912427903 -0.4 -0.5992770552635193
-32.38600158691406 -11 -123.5979995727539 -0.12651523053646088 -0.4 -0.5858536958694458
-44.2859992980957 -11 -120.61799621582031 -0.18336006402969363 -0.4 -0.5706196784973144
-55.834999084472656 -11 -116.48500061035156 -0.2384053647518158 -0.4 -0.549903154373169
-66.92500305175781 -11 -111.23999786376953 -0.2911486566066742 -0.4 -0.5238910675048828
-77.44599914550781 -11 -104.93399810791016 -0.3411106109619141 -0.4 -0.4928209900856018
-87.29900360107422 -11 -97.6259994506836 -0.3877726554870606 -0.4 -0.4570145130157471
-96.38800048828125 -11 -89.38800048828125 -0.43069071769714357 -0.4 -0.4168158769607544
-104.6259994506836 -11 -80.29900360107422 -0.4694634675979614 -0.4 -0.3726042747497559
-111.93399810791016 -11 -70.44599914550781 -0.5037295579910278 -0.4 -0.324785327911377
-118.23999786376953 -11 -59.92499923706055 -0.5331440091133118 -0.4 -0.27383726835250854
-123.48500061035156 -11 -48.834999084472656 -0.5574093580245972 -0.4 -0.2202848494052887
-127.61799621582031 -11 -37.2859992980957 -0.5763237953186036 -0.4 -0.16455579400062562
-130.59800720214844 -11 -25.38599967956543 -0.589679479598999 -0.4 -0.10727893710136414
28.285999298095703 -1 118.61799621582031 0.18336006402969363 0.4 0.5706196784973144
28.285999298095703 -11 118.61799621582031 0.205694742500782 -0.25 0.7204047441482544
39.834999084472656 -1 114.48500061035156 0.2384053647518158 0.4 0.549903154373169
39.834999084472656 -11 114.48500061035156 0.2202848494052887 -0.4 0.5574093580245972
50.92499923706055 -1 109.23999786376953 0.2911486566066742 0.4 0.5238910675048828
50.92499923706055 -11 109.23999786376953 0.27383726835250854 -0.4 0.5331440091133118
102.23999786376953 -1 57.92499923706055 0.5331440091133118 0.4 0.27383726835250854
107.48500061035156 -1 46.834999084472656 0.5574093580245972 0.4 0.2202848494052887
107.48500061035156 -11 46.834999084472656 0.549903154373169 -0.4 0.2384053647518158
102.23999786376953 -11 57.92499923706055 0.5238910675048828 -0.4 0.2911486566066742
61.44599914550781 -1 102.93399810791016 0.3411106109619141 0.4 0.4928209900856018
61.44599914550781 -11 102.93399810791016 0.324785327911377 -0.4 0.5037295579910278
111.61799621582031 -1 35.2859992980957 0.5763237953186036 0.4 0.16455579400062562
111.61799621582031 -11 35.2859992980957 0.5706196784973144 -0.4 0.18336006402969363
71.29900360107422 -1 95.6259994506836 0.3877726554870606 0.4 0.4570145130157471
71.29900360107422 -11 95.6259994506836 0.3726042747497559 -0.4 0.4694634675979614
114.5979995727539 -11 -25.38599967956543 0.589679479598999 -0.4 -0.10727893710136414
116.39800262451172 -11 -13.251999855041504 0.49699263274669647 -0.5 -0.048953342251479626
111.61799621582031 -11 -37.2859992980957 0.5763237953186036 -0.4 -0.16455579400062562
107.48500061035156 -11 -48.834999084472656 0.5574093580245972 -0.4 -0.2202848494052887
102.23999786376953 -11 -59.92499923706055 0.5331440091133118 -0.4 -0.27383726835250854
114.5979995727539 -1 23.38599967956543 0.589679479598999 0.4 0.10727893710136414
114.5979995727539 -11 23.38599967956543 0.5858536958694458 -0.4 0.12651523053646088
80.38800048828125 -1 87.38800048828125 0.43069071769714357 0.4 0.4168158769607544
80.38800048828125 -11 87.38800048828125 0.347346564133962 -0.5 0.35890893141428626
88.6259994506836 -1 78.29900360107422 0.4694634675979614 0.4 0.3726042747497559
88.6259994506836 -11 78.29900360107422 0.4570145130157471 -0.4 0.3877726554870606
95.93399810791016 -1 68.44599914550781 0.5037295579910278 0.4 0.324785327911377
95.93399810791016 -11 68.44599914550781 0.4928209900856018 -0.4 0.3411106109619141
-104.6259994506836 -11 78.29900360107422 -0.4694634675979614 -0.4 0.3726042747497559
-111.93399810791016 -11 68.44599914550781 -0.5037295579910278 -0.4 0.324785327911377
95.93399810791016 -11 -70.44599914550781 0.5037295579910278 -0.4 -0.324785327911377
-96.38800048828125 -11 87.38800048828125 -0.43069071769714357 -0.4 0.4168158769607544
-133 -1 -1 -0.5992770552635193 0.4 0.009815125912427903
-132.3979949951172 -11 11.251999855041504 -0.662656843662262 -0.3333333333333333 0.06527112300197283
-130.59800720214844 -11 23.38599967956543 -0.4898054897785187 -0.5 0.09741423651576042
-87.29900360107422 -11 95.6259994506836 -0.3877726554870606 -0.4 0.4570145130157471
-77.44599914550781 -11 102.93399810791016 -0.3411106109619141 -0.4 0.4928209900856018
116.39800262451172 -1 11.251999855041504 0.5973531246185303 0.4 0.0489777997136116
-127.61799621582031 -11 35.2859992980957 -0.5763237953186036 -0.4 0.16455579400062562
-66.92500305175781 -11 109.23999786376953 -0.2911486566066742 -0.4 0.5238910675048828
-130.59800720214844 -1 -25.38599967956543 -0.22532834456517148 0.7692307692307693 -0.04865970405248495
-123.48500061035156 -11 46.834999084472656 -0.5574093580245972 -0.4 0.2202848494052887
-55.834999084472656 -11 114.48500061035156 -0.2384053647518158 -0.4 0.549903154373169
-118.23999786376953 -11 57.92499923706055 -0.5331440091133118 -0.4 0.27383726835250854
-44.2859992980957 -11 118.61799621582031 -0.18336006402969363 -0.4 0.5706196784973144
-32.38600158691406 -11 121.5979995727539 -0.12651523053646088 -0.4 0.5858536958694458
-20.25200080871582 -11 123.39800262451172 -0.0685102216899395 -0.4 0.5954291939735413
-55.834999084472656 -1 -116.48500061035156 -0.2202848494052887 0.4 -0.5574093580245972
-44.2859992980957 -1 -120.61799621582031 -0.16455579400062562 0.4 -0.5763237953186036
-132.3979949951172 -1 -13.251999855041504 -0.662656843662262 0.3333333333333333 -0.06527112300197283
-127.61799621582031 -1 -37.2859992980957 -0.5706196784973144 0.4 -0.18336006402969363
-8 -1 -126 0.002886801738949383 0.8235294117647058 -0.17625795743044684
-123.48500061035156 -1 -48.834999084472656 -0.549903154373169 0.4 -0.2384053647518158
-118.23999786376953 -1 -59.92499923706055 -0.5238910675048828 0.4 -0.2911486566066742
-111.93399810791016 -1 -70.44599914550781 -0.4928209900856018 0.4 -0.3411106109619141
-104.6259994506836 -1 -80.29900360107422 -0.4570145130157471 0.4 -0.3877726554870606
-96.38800048828125 -1 -89.38800048828125 -0.4168158769607544 0.4 -0.43069071769714357
-87.29900360107422 -1 -97.6259994506836 -0.3726042747497559 0.4 -0.4694634675979614
-77.44599914550781 -1 -104.93399810791016 -0.324785327911377 0.4 -0.5037295579910278
-66.92500305175781 -1 -111.23999786376953 -0.27383726835250854 0.4 -0.5331440091133118
-32.38600158691406 -1 -123.5979995727539 -0.10727893710136414 0.4 -0.589679479598999
-20.25200080871582 -1 -125.39800262451172 -0.061222249642014503 0.25 -0.7466914057731628
117 -1 -1 0.49939754605293274 0.5 0
116.39800262451172 -1 -13.251999855041504 0.662656843662262 0.3333333333333333 -0.06527112300197283
114.5979995727539 -1 -25.38599967956543 0.5858536958694458 0.4 -0.12651523053646088
111.61799621582031 -1 -37.2859992980957 0.5706196784973144 0.4 -0.18336006402969363
107.48500061035156 -1 -48.834999084472656 0.549903154373169 0.4 -0.2384053647518158
102.23999786376953 -1 -59.92499923706055 0.5238910675048828 0.4 -0.2911486566066742
95.93399810791016 -1 -70.44599914550781 0.4928209900856018 0.4 -0.3411106109619141
-8 -11 124 -0.009815125912427903 -0.4 0.5992770552635193
116.39800262451172 -11 11.251999855041504 0.5954291939735413 -0.4 0.0685102216899395
3 0 1 2
3 3 4 5
3 3 5 6
3 7 8 5
3 7 5 4
3 9 10 8
3 9 8 7
3 11 12 10
3 11 10 9
3 13 14 12
3 13 12 11
3 15 16 14
3 15 14 13
3 17 18 16
3 17 16 15
3 19 20 18
3 19 18 17
3 21 22 23
3 21 23 24
3 21 24 25
3 21 25 26
3 21 26 27
3 21 27 28
3 21 28 29
3 21 29 30
3 31 32 30
3 33 32 31
3 34 32 33
3 35 32 34
3 36 32 35
3 21 30 32
3 22 37 38
3 37 39 40
3 37 40 38
3 41 1 42
3 43 1 41
3 44 1 43
3 45 1 44
3 46 1 45
3 47 1 46
3 48 1 47
3 49 1 48
3 50 1 49
3 51 1 50
3 52 1 51
3 53 1 52
3 54 1 53
3 55 1 54
3 55 2 1
3 20 42 1
3 39 56 57
3 39 57 40
3 56 58 59
3 56 59 57
3 58 60 61
3 58 61 59
3 62 63 64
3 62 64 65
3 60 66 67
3 60 67 61
3 63 68 69
3 63 69 64
3 66 70 71
3 66 71 67
3 72 20 73
3 74 20 72
3 75 20 74
3 76 20 75
3 1 73 20
3 68 77 78
3 68 78 69
3 70 79 80
3 70 80 71
3 79 81 82
3 79 82 80
3 81 83 84
3 81 84 82
3 33 31 85
3 33 85 86
3 83 62 65
3 83 65 84
3 20 76 87
3 20 87 6
3 20 6 5
3 8 18 5
3 10 18 8
3 12 18 10
3 14 18 12
3 16 18 14
3 20 5 18
3 31 30 88
3 31 88 85
3 0 89 90
3 21 90 89
3 21 32 90
3 91 90 32
3 30 29 92
3 30 92 88
3 29 28 93
3 29 93 92
3 63 21 68
3 62 21 63
3 83 21 62
3 81 21 83
3 77 68 21
3 79 21 81
3 70 21 79
3 66 21 70
3 60 21 66
3 58 21 60
3 56 21 58
3 39 21 56
3 37 21 39
3 22 21 37
3 94 77 21
3 32 36 95
3 32 95 91
3 28 27 96
3 28 96 93
3 17 15 97
3 19 17 97
3 36 35 98
3 36 98 95
3 27 26 99
3 27 99 96
3 35 34 100
3 35 100 98
3 26 25 101
3 26 101 99
3 34 33 86
3 34 86 100
3 25 24 102
3 25 102 101
3 24 23 103
3 24 103 102
3 104 45 44
3 104 44 105
3 106 4 89
3 107 108 97
3 19 97 108
3 108 107 109
3 108 109 110
3 108 110 111
3 108 111 112
3 108 112 113
3 108 113 114
3 108 114 115
3 108 115 116
3 108 116 104
3 108 104 105
3 108 105 117
3 108 117 118
3 108 42 20
3 108 20 19
3 116 46 45
3 116 45 104
3 94 119 1
3 115 47 46
3 115 46 116
3 1 119 120
3 1 120 73
3 120 121 72
3 120 72 73
3 114 48 47
3 114 47 115
3 122 21 123
3 121 21 122
3 120 21 121
3 119 21 120
3 94 21 119
3 124 123 21
3 124 21 125
3 121 122 74
3 121 74 72
3 113 49 48
3 113 48 114
3 122 123 75
3 122 75 74
3 123 124 76
3 123 76 75
3 112 50 49
3 112 49 113
3 111 51 50
3 111 50 112
3 13 97 15
3 11 97 13
3 9 97 11
3 7 97 9
3 106 97 4
3 7 4 97
3 3 21 4
3 125 21 3
3 89 4 21
3 124 125 87
3 124 87 76
3 125 3 6
3 125 6 87
3 91 1 90
3 0 90 1
3 110 52 51
3 110 51 111
3 109 53 52
3 109 52 110
3 107 54 53
3 107 53 109
3 97 55 54
3 97 54 107
3 126 38 1
3 91 95 1
3 95 98 1
3 98 100 1
3 100 86 1
3 86 85 1
3 85 88 1
3 88 92 1
3 92 93 1
3 93 96 1
3 96 99 1
3 99 101 1
3 101 102 1
3 102 103 1
3 126 1 103
3 77 94 127
3 77 127 78
3 1 127 94
3 2 55 106
3 97 106 55
3 106 89 0
3 106 0 2
3 57 59 40
3 59 61 40
3 61 67 40
3 67 71 40
3 71 80 40
3 38 40 80
3 38 80 82
3 38 82 84
3 38 84 65
3 38 65 64
3 38 64 69
3 38 69 78
3 38 78 127
3 38 127 1
3 118 41 42
3 118 42 108
3 117 43 41
3 117 41 118
3 23 22 126
3 23 126 103
3 105 44 43
3 105 43 117
3 38 126 22
